<?xml version="1.0" encoding="UTF-8" standalone="no"?>
<!-- Created with Inkscape (http://www.inkscape.org/) -->

<svg
   width="180mm"
   height="280mm"
   viewBox="0 0 180 280"
   version="1.1"
   id="svg1"
   xml:space="preserve"
   inkscape:version="1.4.2 (f4327f4, 2025-05-13)"
   sodipodi:docname="oat.svg"
   xmlns:inkscape="http://www.inkscape.org/namespaces/inkscape"
   xmlns:sodipodi="http://sodipodi.sourceforge.net/DTD/sodipodi-0.dtd"
   xmlns="http://www.w3.org/2000/svg"
   xmlns:svg="http://www.w3.org/2000/svg"><sodipodi:namedview
     id="namedview1"
     pagecolor="#ffffff"
     bordercolor="#999999"
     borderopacity="1"
     inkscape:showpageshadow="2"
     inkscape:pageopacity="0"
     inkscape:pagecheckerboard="0"
     inkscape:deskcolor="#d1d1d1"
     inkscape:document-units="mm"
     inkscape:zoom="0.55748644"
     inkscape:cx="452.02893"
     inkscape:cy="637.68367"
     inkscape:window-width="1920"
     inkscape:window-height="1129"
     inkscape:window-x="1672"
     inkscape:window-y="-8"
     inkscape:window-maximized="1"
     inkscape:current-layer="layer1" /><defs
     id="defs1" /><g
     inkscape:label="Ebene 1"
     inkscape:groupmode="layer"
     id="layer1"><path
       style="fill:#ca893d;stroke:none;stroke-width:0.881059"
       d="m 98.086477,10.284091 c -8.72518,12.545685 -15.237436,27.541318 -20.227373,41.960408 -3.104147,8.969857 -5.812459,19.004812 -4.896093,28.595242 0.41179,4.309657 1.595038,9.342328 3.883297,13.054348 1.19243,1.93436 3.972179,3.54359 4.644286,5.59952 1.132057,3.462881 0.909997,7.594171 1.067247,11.184641 0.22594,5.15968 0.51324,10.35958 0.28634,15.5409 -0.3654,8.34369 -3.489751,17.57917 -6.829117,25.17624 -2.04753,4.65813 -5.389125,9.45537 -5.902181,14.60844 H 69.802066 C 69.428692,157.30909 68.39352,149.17787 64.82898,141.1384 75.011385,136.3776 73.657115,122.65058 70.794713,113.78643 65.563672,97.587209 53.473562,84.176688 41.857476,72.149305 37.619329,67.76109 33.443501,62.288958 28.463292,58.771675 c 1.201365,14.708585 3.193196,29.718655 6.39527,44.136135 1.511576,6.80593 3.110873,14.60973 6.361456,20.82479 3.151072,6.02479 6.473392,11.85107 12.41952,15.52075 1.752628,1.08164 3.561182,1.74167 5.59472,2.0594 1.176058,0.18376 2.636821,-0.0988 3.528117,0.85691 1.173307,1.25817 1.535394,3.59115 2.066605,5.1851 1.69453,5.08456 2.404493,10.21034 2.76954,15.54089 1.469279,21.45514 -6.881483,41.26494 -14.154923,60.9203 -2.206922,5.96387 -1.917171,12.42981 -4.426517,18.33825 -2.403204,5.65852 -5.04249,10.67632 -8.37313,15.84715 -2.374548,3.68649 -5.354731,7.31098 -5.964301,11.81564 2.47018,-0.1903 3.038119,-2.82753 4.388386,-4.57352 3.89855,-5.04115 7.715127,-10.16928 10.461561,-15.94046 3.33192,-7.0015 3.745199,-14.84262 6.313487,-22.06806 2.818465,-7.92927 7.795915,-15.19426 10.096059,-23.31135 2.396537,-8.45722 3.160481,-18.98132 8.199263,-26.40872 1.46339,-2.15711 6.39217,1.07699 8.718006,1.4102 6.147516,0.88066 13.038256,-1.07257 18.338249,-4.15983 14.87798,-8.66642 26.73707,-22.12908 36.95136,-35.77476 3.64006,-4.8629 7.90141,-9.65862 10.91459,-14.94707 -17.5133,5.69666 -36.27908,7.95457 -52.528213,16.98706 -7.78769,4.32897 -16.026201,10.01268 -20.284457,18.13536 -2.56198,4.88701 -4.187247,11.9503 -4.891786,17.40579 h -0.310817 c 0.614948,-7.72723 3.670776,-18.18531 8.250587,-24.50184 3.749657,-5.17156 8.837313,-9.2803 13.094873,-14.01175 2.36883,-2.63249 4.88214,-5.13015 7.20804,-7.80282 1.245893,-1.43163 2.551273,-3.52678 4.393193,-4.25887 1.20406,-0.47856 2.57834,0.48361 3.72981,0.79503 1.8591,0.50279 3.99226,0.48511 5.90554,0.3312 5.65903,-0.45521 11.62338,-4.4788 15.83947,-7.99228 8.21271,-6.84406 14.21432,-17.10575 19.05247,-26.479481 5.65071,-10.948038 11.25178,-22.296627 15.46055,-33.879144 -7.39769,3.100324 -14.60944,8.079765 -21.44643,12.290015 -13.6263,8.391132 -28.16089,17.768635 -36.53572,31.84612 -2.21587,3.72473 -4.21456,8.09477 -4.75461,12.43271 -0.32263,2.59168 0.73864,7.23757 -0.56096,9.3243 -5.272543,8.46593 -15.701159,13.80125 -20.31228,22.68994 h -0.310811 c 3.562782,-9.69925 5.533592,-19.77335 5.279342,-30.14934 -0.0931,-3.79938 -0.23558,-7.72278 -0.70557,-11.50025 -0.20864,-1.67681 -1.0711,-4.18252 -0.56768,-5.834791 0.44415,-1.4578 5.237446,-2.58065 6.561706,-3.63844 3.757,-3.00105 6.54717,-7.522098 8.25898,-11.973201 4.556173,-11.847047 4.432803,-25.46557 3.579913,-37.919777 -0.82233,-12.008128 -1.45907,-24.202473 -3.757633,-36.05487 h -0.62164 M 41.206824,136.16532 c -4.577383,14.0675 -9.920637,27.90215 -13.512903,42.27122 -1.868976,7.47591 -3.775657,15.23233 -3.672256,23.00052 0.08961,6.73198 0.506919,13.59238 3.971806,19.58033 1.116888,1.93019 2.668842,3.59228 4.510453,4.84237 1.047967,0.71137 2.550759,1.50965 2.260382,2.98203 -2.011788,10.20091 -7.414724,20.8876 -7.54309,31.33985 -0.03129,2.54764 -0.188076,4.91327 -0.0089,7.45962 0.06313,0.89695 0.05796,2.52568 1.28644,2.62757 2.264499,0.18782 1.724703,-7.8199 1.837087,-9.46556 0.716764,-10.49542 4.319911,-21.07358 6.250172,-31.38683 0.412302,-2.20291 5.085544,-3.54345 6.784267,-4.9213 3.678849,-2.98392 6.186696,-7.17302 7.860861,-11.55782 6.997983,-18.32831 1.510219,-40.7053 -3.89505,-58.74457 -1.125111,-3.75489 -2.43295,-7.44285 -3.578958,-11.18944 -0.692919,-2.26534 -1.097206,-4.91594 -2.550342,-6.83799 m 68.379927,45.06858 c -7.01423,5.71207 -13.581003,12.15259 -20.203163,18.31044 -13.160612,12.23781 -29.547148,26.49536 -30.980819,45.71803 -0.232877,3.1224 0.512818,7.05521 1.688402,9.94618 0.542897,1.33509 1.866557,2.60843 2.060126,4.04063 0.502499,3.71786 -3.512484,7.06263 -2.295402,11.18944 h 0.310818 c 1.63038,-2.80664 2.85027,-6.70538 3.108178,-9.94617 2.677512,0.39543 4.987636,1.24904 7.770447,0.83893 7.879489,-1.16126 13.744304,-8.70168 17.87778,-14.82573 8.74176,-12.95153 13.041363,-29.03305 16.444333,-44.13613 1.14054,-5.06196 2.39095,-10.11934 3.31274,-15.23008 0.31706,-1.75783 1.43015,-4.18134 0.90656,-5.90554 z"
       id="path1" /></g></svg>
