{
  "asset": {
    "generator": "Khronos glTF Blender I/O v5.0.21",
    "version": "2.0"
  },
  "scene": 0,
  "scenes": [
    {
      "name": "Scene",
      "nodes": [4]
    }
  ],
  "nodes": [
    {
      "name": "EarLeft",
      "rotation": [
        1.5454309831852697e-8, 1.5454309831852697e-8, -0.7071067690849304,
        0.7071067690849304
      ],
      "scale": [1, 0.9999999403953552, 1],
      "translation": [0, 23.455289840698242, 0]
    },
    {
      "name": "EarRight",
      "rotation": [
        1.5454309831852697e-8, -1.5454313384566376e-8, 0.7071067690849304,
        0.7071067690849304
      ],
      "translation": [0, 23.455289840698242, 0]
    },
    {
      "children": [0, 1],
      "name": "Root",
      "rotation": [-2.980232594040899e-8, 0, 0, 1],
      "scale": [1, 0.9999999403953552, 0.9999999403953552]
    },
    {
      "mesh": 0,
      "name": "Suzanne",
      "skin": 0
    },
    {
      "children": [3, 2],
      "name": "Armature",
      "translation": [0, -23.480762481689453, 0]
    }
  ],
  "materials": [
    {
      "doubleSided": true,
      "name": "Suzanne",
      "pbrMetallicRoughness": {
        "baseColorFactor": [
          0.800000011920929, 0.800000011920929, 0.800000011920929, 1
        ],
        "metallicFactor": 0,
        "roughnessFactor": 0.5
      }
    }
  ],
  "meshes": [
    {
      "name": "Suzanne",
      "primitives": [
        {
          "attributes": {
            "POSITION": 0,
            "NORMAL": 1,
            "TEXCOORD_0": 2,
            "JOINTS_0": 3,
            "WEIGHTS_0": 4
          },
          "indices": 5,
          "material": 0
        }
      ]
    }
  ],
  "skins": [
    {
      "inverseBindMatrices": 6,
      "joints": [2, 0, 1],
      "name": "Armature"
    }
  ],
  "accessors": [
    {
      "bufferView": 0,
      "componentType": 5126,
      "count": 2865,
      "max": [34.1796875, 24.609375, 21.2890625],
      "min": [-34.1796875, -24.609375, -21.2890625],
      "type": "VEC3"
    },
    {
      "bufferView": 1,
      "componentType": 5126,
      "count": 2865,
      "type": "VEC3"
    },
    {
      "bufferView": 2,
      "componentType": 5126,
      "count": 2865,
      "type": "VEC2"
    },
    {
      "bufferView": 3,
      "componentType": 5121,
      "count": 2865,
      "type": "VEC4"
    },
    {
      "bufferView": 4,
      "componentType": 5126,
      "count": 2865,
      "type": "VEC4"
    },
    {
      "bufferView": 5,
      "componentType": 5123,
      "count": 2901,
      "type": "SCALAR"
    },
    {
      "bufferView": 6,
      "componentType": 5126,
      "count": 3,
      "type": "MAT4"
    }
  ],
  "bufferViews": [
    {
      "buffer": 0,
      "byteLength": 34380,
      "byteOffset": 0,
      "target": 34962
    },
    {
      "buffer": 0,
      "byteLength": 34380,
      "byteOffset": 34380,
      "target": 34962
    },
    {
      "buffer": 0,
      "byteLength": 22920,
      "byteOffset": 68760,
      "target": 34962
    },
    {
      "buffer": 0,
      "byteLength": 11460,
      "byteOffset": 91680,
      "target": 34962
    },
    {
      "buffer": 0,
      "byteLength": 45840,
      "byteOffset": 103140,
      "target": 34962
    },
    {
      "buffer": 0,
      "byteLength": 5802,
      "byteOffset": 148980,
      "target": 34963
    },
    {
      "buffer": 0,
      "byteLength": 192,
      "byteOffset": 154784
    }
  ],
  "buffers": [
    {
      "byteLength": 154976,
      "uri": "data:application/octet-stream;base64,"
    }
  ]
}
