<?xml version="1.0" encoding="UTF-8" standalone="no"?>
<!-- Created with Inkscape (http://www.inkscape.org/) -->

<svg
   width="300mm"
   height="300mm"
   viewBox="0 0 300 300"
   version="1.1"
   id="svg1"
   xml:space="preserve"
   inkscape:version="1.4.2 (f4327f4, 2025-05-13)"
   sodipodi:docname="oat_circle.svg"
   xmlns:inkscape="http://www.inkscape.org/namespaces/inkscape"
   xmlns:sodipodi="http://sodipodi.sourceforge.net/DTD/sodipodi-0.dtd"
   xmlns="http://www.w3.org/2000/svg"
   xmlns:svg="http://www.w3.org/2000/svg"><sodipodi:namedview
     id="namedview1"
     pagecolor="#ffffff"
     bordercolor="#999999"
     borderopacity="1"
     inkscape:showpageshadow="2"
     inkscape:pageopacity="0"
     inkscape:pagecheckerboard="0"
     inkscape:deskcolor="#d1d1d1"
     inkscape:document-units="mm"
     inkscape:zoom="0.55748644"
     inkscape:cx="452.02893"
     inkscape:cy="637.68367"
     inkscape:window-width="1920"
     inkscape:window-height="1129"
     inkscape:window-x="1672"
     inkscape:window-y="-8"
     inkscape:window-maximized="1"
     inkscape:current-layer="layer1" /><defs
     id="defs1"><filter
       style="color-interpolation-filters:sRGB;"
       inkscape:label="Drop Shadow"
       id="filter19"
       x="-0.16704432"
       y="-0.08986926"
       width="1.3601893"
       height="1.1937806"><feFlood
         result="flood"
         in="SourceGraphic"
         flood-opacity="0.403922"
         flood-color="rgb(0,0,0)"
         id="feFlood18" /><feGaussianBlur
         result="blur"
         in="SourceGraphic"
         stdDeviation="8.000000"
         id="feGaussianBlur18" /><feOffset
         result="offset"
         in="blur"
         dx="3.000000"
         dy="3.000000"
         id="feOffset18" /><feComposite
         result="comp1"
         operator="in"
         in="flood"
         in2="offset"
         id="feComposite18" /><feComposite
         result="comp2"
         operator="over"
         in="SourceGraphic"
         in2="comp1"
         id="feComposite19" /></filter></defs><g
     inkscape:label="Ebene 1"
     inkscape:groupmode="layer"
     id="layer1"><circle
       style="fill:#ca893d;stroke-width:0.264583;fill-opacity:1"
       id="path2"
       cx="149.73645"
       cy="151.63484"
       r="128" /><path
       style="fill:#ffffff;stroke:none;stroke-width:0.724;fill-opacity:1;stroke-dasharray:none;stroke-opacity:1;filter:url(#filter19)"
       d="m 157.15533,40.658523 c -7.16528,10.302747 -12.51327,22.617436 -16.6111,34.458658 -2.54917,7.366211 -4.77329,15.607101 -4.02076,23.482935 0.33817,3.539174 1.30988,7.672094 3.18904,10.720474 0.97925,1.58854 3.26203,2.91006 3.81397,4.59843 0.92967,2.84378 0.74731,6.23647 0.87645,9.18503 0.18554,4.23723 0.42148,8.50748 0.23514,12.76248 -0.30007,6.85199 -2.86584,14.43633 -5.6082,20.67519 -1.68147,3.82534 -4.42564,7.76492 -4.84697,11.99672 h -0.25525 c -0.30662,-7.14028 -1.15672,-13.81779 -4.08399,-20.41995 8.36198,-3.90966 7.24983,-15.18254 4.89917,-22.46194 -4.29583,-13.3031 -14.22445,-24.31606 -23.76379,-34.193176 -3.48045,-3.603683 -6.90971,-8.097499 -10.999551,-10.985956 0.986581,12.07896 2.622311,24.405512 5.251911,36.245412 1.24134,5.58915 2.55471,11.99777 5.22415,17.1017 2.58771,4.94766 5.31606,9.73231 10.19914,12.74592 1.43929,0.88826 2.9245,1.43029 4.59448,1.69122 0.9658,0.15091 2.16541,-0.0811 2.89736,0.70371 0.96354,1.03323 1.26089,2.94912 1.69713,4.2581 1.39158,4.17553 1.97461,8.38492 2.2744,12.76246 1.2066,17.61936 -5.6512,33.88753 -11.62428,50.02887 -1.81237,4.89764 -1.57442,10.20759 -3.63514,15.05971 -1.97356,4.64688 -4.14099,8.76759 -6.87617,13.01397 -1.95003,3.02741 -4.3974,6.00391 -4.89799,9.70322 2.02855,-0.15628 2.49496,-2.32202 3.60382,-3.75586 3.20156,-4.13988 6.3358,-8.3512 8.59123,-13.0906 2.73623,-5.74976 3.07562,-12.18903 5.18474,-18.12269 2.31458,-6.51166 6.40216,-12.47781 8.29107,-19.14371 1.96809,-6.94523 2.59545,-15.58781 6.73339,-21.68733 1.20177,-1.77146 5.24937,0.88445 7.15939,1.15809 5.04845,0.72321 10.70726,-0.88082 15.0597,-3.41613 12.21808,-7.11703 21.95698,-18.17281 30.34514,-29.37889 2.98928,-3.99351 6.48878,-7.93184 8.96326,-12.27481 -14.38224,4.6782 -29.79304,6.53244 -43.13713,13.95008 -6.39539,3.55503 -13.16101,8.2226 -16.65797,14.89309 -2.10395,4.01331 -3.43865,9.81381 -4.01723,14.29396 h -0.25524 c 0.50501,-6.34574 3.0145,-14.93411 6.77553,-20.12136 3.07929,-4.24698 7.25737,-7.62116 10.75375,-11.50671 1.94533,-2.16185 4.00931,-4.21297 5.91938,-6.40782 1.02315,-1.17568 2.09515,-2.89626 3.60777,-3.49746 0.98879,-0.393 2.11738,0.39715 3.06298,0.65289 1.52673,0.4129 3.27852,0.39838 4.84974,0.27199 4.6473,-0.37383 9.54534,-3.67807 13.00767,-6.56341 6.74442,-5.62047 11.67306,-14.04755 15.64624,-21.74543 4.64046,-8.990734 9.24016,-18.310406 12.69648,-27.822182 -6.07512,2.546043 -11.99754,6.635251 -17.6122,10.092786 -11.19017,6.890952 -23.12624,14.591936 -30.0038,26.152626 -1.81972,3.05881 -3.46108,6.64757 -3.90458,10.20997 -0.26495,2.12833 0.60659,5.94362 -0.46067,7.65728 -4.32991,6.95238 -12.89408,11.33384 -16.68082,18.6334 h -0.25524 c 2.92582,-7.9652 4.54429,-16.23824 4.33549,-24.75919 -0.0764,-3.12012 -0.19346,-6.34209 -0.57942,-9.44422 -0.17134,-1.37703 -0.87961,-3.43476 -0.46619,-4.79164 0.36474,-1.19717 4.30109,-2.11927 5.38859,-2.98795 3.08532,-2.46452 5.37666,-6.17729 6.78243,-9.83261 3.74161,-9.72902 3.6403,-20.912802 2.93989,-31.140425 -0.67532,-9.861296 -1.19822,-19.875516 -3.08584,-29.608922 h -0.5105 M 110.44471,144.0345 c -3.75903,11.55249 -8.14701,22.91376 -11.097041,34.71391 -1.534837,6.13935 -3.100637,12.50907 -3.015727,18.88845 0.0736,5.52842 0.41629,11.16231 3.261717,16.07972 0.917211,1.58511 2.191701,2.95005 3.704061,3.97665 0.86062,0.58419 2.09474,1.23975 1.85628,2.44889 -1.65212,8.37718 -6.089111,17.15329 -6.194528,25.73687 -0.0257,2.09216 -0.15445,4.03486 -0.007,6.12597 0.0519,0.73659 0.0476,2.07414 1.056448,2.15781 1.85965,0.15424 1.41636,-6.42184 1.50865,-7.77329 0.58862,-8.61903 3.54759,-17.30601 5.13276,-25.77544 0.33859,-1.80907 4.17634,-2.90995 5.57136,-4.04146 3.02114,-2.45045 5.08063,-5.89062 6.45548,-9.4915 5.74688,-15.05154 1.24022,-33.42794 -3.19868,-48.24212 -0.92396,-3.08358 -1.99799,-6.1122 -2.9391,-9.18897 -0.56904,-1.86034 -0.90105,-4.03706 -2.0944,-5.61549 m 56.15486,37.01115 c -5.76022,4.69086 -11.15297,9.97993 -16.59121,15.03687 -10.80773,10.04991 -24.26466,21.75848 -25.44202,37.54449 -0.19124,2.56417 0.42114,5.79387 1.38655,8.16798 0.44584,1.0964 1.53285,2.14209 1.69181,3.31824 0.41267,3.05318 -2.88452,5.79996 -1.88503,9.18898 h 0.25525 c 1.3389,-2.30487 2.3407,-5.50659 2.5525,-8.16798 2.19882,0.32473 4.09594,1.02573 6.38123,0.68894 6.47079,-0.95364 11.28708,-7.14598 14.68157,-12.17516 7.17889,-10.63603 10.7098,-23.84247 13.50438,-36.2454 0.93663,-4.15697 1.96349,-8.31019 2.72048,-12.50722 0.26038,-1.44356 1.17447,-3.43379 0.74449,-4.84974 z"
       id="path1" /></g></svg>
